<svg width="338" height="113" viewBox="0 0 338 113" fill="none" xmlns="http://www.w3.org/2000/svg">
<path fill-rule="evenodd" clip-rule="evenodd" d="M338 49.2422C333.342 51.0239 328.285 52 323 52C299.804 52 281 33.196 281 10C281 6.55398 281.415 3.2049 282.198 0H0V113H338V49.2422Z" fill="#5885FA"/>
<path d="M47 61.556V60.842H54V61.556H47ZM59.0781 65V57.65H60.0721V64.132H64.5661V57.65H65.5601V65H59.0781ZM65.8121 66.778V64.916L66.0641 65H64.5661V64.132H66.7501V66.778H65.8121ZM71.7984 65.07C71.033 65.07 70.361 64.9113 69.7824 64.594C69.2037 64.2673 68.751 63.824 68.4244 63.264C68.0977 62.6947 67.9344 62.046 67.9344 61.318C67.9344 60.59 68.0884 59.946 68.3964 59.386C68.7137 58.826 69.143 58.3873 69.6844 58.07C70.235 57.7433 70.851 57.58 71.5324 57.58C72.223 57.58 72.8344 57.7387 73.3664 58.056C73.9077 58.364 74.3324 58.8027 74.6404 59.372C74.9484 59.932 75.1024 60.5807 75.1024 61.318C75.1024 61.3647 75.0977 61.416 75.0884 61.472C75.0884 61.5187 75.0884 61.57 75.0884 61.626H68.6904V60.884H74.5564L74.1644 61.178C74.1644 60.646 74.0477 60.1747 73.8144 59.764C73.5904 59.344 73.2824 59.0173 72.8904 58.784C72.4984 58.5507 72.0457 58.434 71.5324 58.434C71.0284 58.434 70.5757 58.5507 70.1744 58.784C69.773 59.0173 69.4604 59.344 69.2364 59.764C69.0124 60.184 68.9004 60.6647 68.9004 61.206V61.36C68.9004 61.92 69.0217 62.4147 69.2644 62.844C69.5164 63.264 69.8617 63.5953 70.3004 63.838C70.7484 64.0713 71.257 64.188 71.8264 64.188C72.2744 64.188 72.6897 64.1087 73.0724 63.95C73.4644 63.7913 73.8004 63.5487 74.0804 63.222L74.6404 63.866C74.3137 64.258 73.903 64.5567 73.4084 64.762C72.923 64.9673 72.3864 65.07 71.7984 65.07ZM80.9667 65V57.65H84.2147C85.0454 57.65 85.6987 57.8087 86.1747 58.126C86.6601 58.4433 86.9027 58.91 86.9027 59.526C86.9027 60.1233 86.6741 60.5853 86.2167 60.912C85.7594 61.2293 85.1574 61.388 84.4107 61.388L84.6067 61.094C85.4841 61.094 86.1281 61.2573 86.5387 61.584C86.9494 61.9107 87.1547 62.382 87.1547 62.998C87.1547 63.6327 86.9214 64.1273 86.4547 64.482C85.9974 64.8273 85.2834 65 84.3127 65H80.9667ZM81.9327 64.216H84.2707C84.8961 64.216 85.3674 64.118 85.6847 63.922C86.0114 63.7167 86.1747 63.39 86.1747 62.942C86.1747 62.494 86.0301 62.1673 85.7407 61.962C85.4514 61.7567 84.9941 61.654 84.3687 61.654H81.9327V64.216ZM81.9327 60.912H84.1447C84.7141 60.912 85.1481 60.8047 85.4467 60.59C85.7547 60.3753 85.9087 60.0627 85.9087 59.652C85.9087 59.2413 85.7547 58.9333 85.4467 58.728C85.1481 58.5227 84.7141 58.42 84.1447 58.42H81.9327V60.912ZM94.0483 65V63.376L94.0063 63.11V60.394C94.0063 59.7687 93.829 59.288 93.4743 58.952C93.129 58.616 92.611 58.448 91.9203 58.448C91.4443 58.448 90.9916 58.5273 90.5623 58.686C90.133 58.8447 89.769 59.0547 89.4703 59.316L89.0223 58.574C89.3956 58.2567 89.8436 58.014 90.3663 57.846C90.889 57.6687 91.4396 57.58 92.0183 57.58C92.9703 57.58 93.703 57.818 94.2163 58.294C94.739 58.7607 95.0003 59.4747 95.0003 60.436V65H94.0483ZM91.5143 65.07C90.9636 65.07 90.483 64.9813 90.0723 64.804C89.671 64.6173 89.363 64.3653 89.1483 64.048C88.9336 63.7213 88.8263 63.348 88.8263 62.928C88.8263 62.5453 88.915 62.2 89.0923 61.892C89.279 61.5747 89.5776 61.3227 89.9883 61.136C90.4083 60.94 90.9683 60.842 91.6683 60.842H94.2023V61.584H91.6963C90.987 61.584 90.4923 61.71 90.2123 61.962C89.9416 62.214 89.8063 62.5267 89.8063 62.9C89.8063 63.32 89.9696 63.656 90.2963 63.908C90.623 64.16 91.0803 64.286 91.6683 64.286C92.2283 64.286 92.709 64.16 93.1103 63.908C93.521 63.6467 93.8196 63.2733 94.0063 62.788L94.2303 63.474C94.0436 63.9593 93.717 64.3467 93.2503 64.636C92.793 64.9253 92.2143 65.07 91.5143 65.07ZM102.476 64.132L102.252 64.398V57.65H103.246V64.398L102.98 64.132H107.082L106.816 64.398V57.65H107.81V65H97.6464V57.65H98.6404V64.398L98.3884 64.132H102.476ZM115.199 65V63.376L115.157 63.11V60.394C115.157 59.7687 114.979 59.288 114.625 58.952C114.279 58.616 113.761 58.448 113.071 58.448C112.595 58.448 112.142 58.5273 111.713 58.686C111.283 58.8447 110.919 59.0547 110.621 59.316L110.173 58.574C110.546 58.2567 110.994 58.014 111.517 57.846C112.039 57.6687 112.59 57.58 113.169 57.58C114.121 57.58 114.853 57.818 115.367 58.294C115.889 58.7607 116.151 59.4747 116.151 60.436V65H115.199ZM112.665 65.07C112.114 65.07 111.633 64.9813 111.223 64.804C110.821 64.6173 110.513 64.3653 110.299 64.048C110.084 63.7213 109.977 63.348 109.977 62.928C109.977 62.5453 110.065 62.2 110.243 61.892C110.429 61.5747 110.728 61.3227 111.139 61.136C111.559 60.94 112.119 60.842 112.819 60.842H115.353V61.584H112.847C112.137 61.584 111.643 61.71 111.363 61.962C111.092 62.214 110.957 62.5267 110.957 62.9C110.957 63.32 111.12 63.656 111.447 63.908C111.773 64.16 112.231 64.286 112.819 64.286C113.379 64.286 113.859 64.16 114.261 63.908C114.671 63.6467 114.97 63.2733 115.157 62.788L115.381 63.474C115.194 63.9593 114.867 64.3467 114.401 64.636C113.943 64.9253 113.365 65.07 112.665 65.07ZM124.435 65.084C123.903 65.084 123.376 65.0093 122.853 64.86C122.33 64.7107 121.868 64.482 121.467 64.174L121.789 63.432C122.144 63.6933 122.554 63.894 123.021 64.034C123.488 64.1647 123.95 64.23 124.407 64.23C124.864 64.2207 125.261 64.1553 125.597 64.034C125.933 63.9127 126.194 63.7447 126.381 63.53C126.568 63.3153 126.661 63.0727 126.661 62.802C126.661 62.41 126.484 62.1067 126.129 61.892C125.774 61.668 125.289 61.556 124.673 61.556H123.413V60.828H124.603C124.967 60.828 125.289 60.7813 125.569 60.688C125.849 60.5947 126.064 60.4593 126.213 60.282C126.372 60.1047 126.451 59.8947 126.451 59.652C126.451 59.3907 126.358 59.1667 126.171 58.98C125.994 58.7933 125.746 58.6533 125.429 58.56C125.112 58.4667 124.752 58.42 124.351 58.42C123.987 58.4293 123.609 58.4853 123.217 58.588C122.825 58.6813 122.438 58.826 122.055 59.022L121.775 58.252C122.204 58.028 122.629 57.86 123.049 57.748C123.478 57.6267 123.908 57.566 124.337 57.566C124.925 57.5473 125.452 57.6173 125.919 57.776C126.395 57.9347 126.773 58.1633 127.053 58.462C127.333 58.7513 127.473 59.1013 127.473 59.512C127.473 59.876 127.361 60.1933 127.137 60.464C126.913 60.7347 126.614 60.9447 126.241 61.094C125.868 61.2433 125.443 61.318 124.967 61.318L125.009 61.052C125.849 61.052 126.502 61.2153 126.969 61.542C127.445 61.8687 127.683 62.312 127.683 62.872C127.683 63.3107 127.538 63.698 127.249 64.034C126.96 64.3607 126.568 64.6173 126.073 64.804C125.588 64.9907 125.042 65.084 124.435 65.084ZM133.243 65.084C132.646 65.084 132.114 64.986 131.647 64.79C131.19 64.594 130.798 64.2953 130.471 63.894C130.145 63.4927 129.897 62.998 129.729 62.41C129.561 61.8127 129.477 61.122 129.477 60.338C129.477 59.638 129.543 59.0267 129.673 58.504C129.804 57.972 129.986 57.5147 130.219 57.132C130.453 56.7493 130.723 56.4273 131.031 56.166C131.349 55.8953 131.689 55.6807 132.053 55.522C132.427 55.354 132.809 55.228 133.201 55.144L136.505 54.374L136.673 55.298L133.565 55.998C133.369 56.0447 133.131 56.11 132.851 56.194C132.581 56.278 132.301 56.404 132.011 56.572C131.731 56.74 131.47 56.9733 131.227 57.272C130.985 57.5707 130.789 57.958 130.639 58.434C130.499 58.9007 130.429 59.484 130.429 60.184C130.429 60.3333 130.434 60.4547 130.443 60.548C130.453 60.632 130.462 60.7253 130.471 60.828C130.49 60.9213 130.504 61.0613 130.513 61.248L130.079 60.884C130.182 60.3147 130.392 59.82 130.709 59.4C131.027 58.9707 131.423 58.6393 131.899 58.406C132.385 58.1633 132.921 58.042 133.509 58.042C134.191 58.042 134.797 58.1913 135.329 58.49C135.861 58.7793 136.277 59.1853 136.575 59.708C136.883 60.2307 137.037 60.8373 137.037 61.528C137.037 62.2093 136.879 62.8207 136.561 63.362C136.253 63.9033 135.815 64.328 135.245 64.636C134.676 64.9347 134.009 65.084 133.243 65.084ZM133.355 64.258C133.878 64.258 134.34 64.1413 134.741 63.908C135.143 63.6653 135.455 63.3387 135.679 62.928C135.913 62.5173 136.029 62.0553 136.029 61.542C136.029 61.038 135.913 60.59 135.679 60.198C135.455 59.806 135.143 59.498 134.741 59.274C134.34 59.0407 133.873 58.924 133.341 58.924C132.819 58.924 132.357 59.036 131.955 59.26C131.554 59.4747 131.237 59.778 131.003 60.17C130.779 60.562 130.667 61.0147 130.667 61.528C130.667 62.0413 130.779 62.5033 131.003 62.914C131.237 63.3247 131.554 63.6513 131.955 63.894C132.366 64.1367 132.833 64.258 133.355 64.258ZM142.962 65.07C142.327 65.07 141.753 64.9253 141.24 64.636C140.727 64.3373 140.316 63.9127 140.008 63.362C139.709 62.802 139.56 62.1207 139.56 61.318C139.56 60.5153 139.709 59.8387 140.008 59.288C140.307 58.728 140.713 58.3033 141.226 58.014C141.739 57.7247 142.318 57.58 142.962 57.58C143.662 57.58 144.287 57.7387 144.838 58.056C145.398 58.364 145.837 58.8027 146.154 59.372C146.471 59.932 146.63 60.5807 146.63 61.318C146.63 62.0647 146.471 62.718 146.154 63.278C145.837 63.838 145.398 64.2767 144.838 64.594C144.287 64.9113 143.662 65.07 142.962 65.07ZM139.168 67.716V57.65H140.12V59.862L140.022 61.332L140.162 62.816V67.716H139.168ZM142.892 64.188C143.415 64.188 143.881 64.0713 144.292 63.838C144.703 63.5953 145.029 63.2593 145.272 62.83C145.515 62.3913 145.636 61.8873 145.636 61.318C145.636 60.7487 145.515 60.2493 145.272 59.82C145.029 59.3907 144.703 59.0547 144.292 58.812C143.881 58.5693 143.415 58.448 142.892 58.448C142.369 58.448 141.898 58.5693 141.478 58.812C141.067 59.0547 140.741 59.3907 140.498 59.82C140.265 60.2493 140.148 60.7487 140.148 61.318C140.148 61.8873 140.265 62.3913 140.498 62.83C140.741 63.2593 141.067 63.5953 141.478 63.838C141.898 64.0713 142.369 64.188 142.892 64.188ZM151.79 65.07C151.08 65.07 150.441 64.9113 149.872 64.594C149.312 64.2673 148.868 63.824 148.542 63.264C148.215 62.6947 148.052 62.046 148.052 61.318C148.052 60.5807 148.215 59.932 148.542 59.372C148.868 58.812 149.312 58.3733 149.872 58.056C150.432 57.7387 151.071 57.58 151.79 57.58C152.518 57.58 153.162 57.7387 153.722 58.056C154.291 58.3733 154.734 58.812 155.052 59.372C155.378 59.932 155.542 60.5807 155.542 61.318C155.542 62.046 155.378 62.6947 155.052 63.264C154.734 63.824 154.291 64.2673 153.722 64.594C153.152 64.9113 152.508 65.07 151.79 65.07ZM151.79 64.188C152.322 64.188 152.793 64.0713 153.204 63.838C153.614 63.5953 153.936 63.2593 154.17 62.83C154.412 62.3913 154.534 61.8873 154.534 61.318C154.534 60.7393 154.412 60.2353 154.17 59.806C153.936 59.3767 153.614 59.0453 153.204 58.812C152.793 58.5693 152.326 58.448 151.804 58.448C151.281 58.448 150.814 58.5693 150.404 58.812C149.993 59.0453 149.666 59.3767 149.424 59.806C149.181 60.2353 149.06 60.7393 149.06 61.318C149.06 61.8873 149.181 62.3913 149.424 62.83C149.666 63.2593 149.993 63.5953 150.404 63.838C150.814 64.0713 151.276 64.188 151.79 64.188ZM162.152 65V62.354L162.334 62.564H159.842C158.9 62.564 158.162 62.3587 157.63 61.948C157.098 61.5373 156.832 60.94 156.832 60.156C156.832 59.316 157.117 58.6907 157.686 58.28C158.256 57.86 159.016 57.65 159.968 57.65H163.062V65H162.152ZM156.776 65L158.792 62.172H159.828L157.854 65H156.776ZM162.152 62.06V58.224L162.334 58.518H159.996C159.315 58.518 158.783 58.6487 158.4 58.91C158.027 59.1713 157.84 59.596 157.84 60.184C157.84 61.276 158.536 61.822 159.926 61.822H162.334L162.152 62.06ZM165.966 65.07C165.761 65.07 165.584 64.9953 165.434 64.846C165.294 64.6967 165.224 64.5147 165.224 64.3C165.224 64.076 165.294 63.894 165.434 63.754C165.584 63.614 165.761 63.544 165.966 63.544C166.172 63.544 166.344 63.614 166.484 63.754C166.634 63.894 166.708 64.076 166.708 64.3C166.708 64.5147 166.634 64.6967 166.484 64.846C166.344 64.9953 166.172 65.07 165.966 65.07ZM171.323 65L175.803 55.2H176.825L181.305 65H180.213L176.097 55.802H176.517L172.401 65H171.323ZM173.087 62.382L173.395 61.542H179.093L179.401 62.382H173.087ZM191.257 61.892C190.828 62.0787 190.394 62.228 189.955 62.34C189.526 62.4427 189.097 62.494 188.667 62.494C187.799 62.494 187.113 62.298 186.609 61.906C186.105 61.5047 185.853 60.8887 185.853 60.058V57.65H186.833V60.002C186.833 60.562 187.015 60.982 187.379 61.262C187.743 61.542 188.233 61.682 188.849 61.682C189.223 61.682 189.615 61.6353 190.025 61.542C190.436 61.4393 190.851 61.2947 191.271 61.108L191.257 61.892ZM191.173 65V57.65H192.167V65H191.173ZM194.99 65V57.65H195.984V63.488L200.898 57.65H201.78V65H200.786V59.148L195.886 65H194.99ZM213.333 64.524V58.518H209.791L209.707 60.156C209.688 60.6507 209.656 61.136 209.609 61.612C209.572 62.088 209.502 62.5267 209.399 62.928C209.306 63.32 209.17 63.642 208.993 63.894C208.816 64.1367 208.587 64.2767 208.307 64.314L207.313 64.132C207.602 64.1413 207.84 64.0387 208.027 63.824C208.214 63.6 208.358 63.2967 208.461 62.914C208.564 62.5313 208.638 62.0973 208.685 61.612C208.732 61.1173 208.769 60.6133 208.797 60.1L208.895 57.65H214.327V64.524H213.333ZM207.005 66.778V64.132H215.475V66.778H214.537V65H207.943V66.778H207.005ZM220.436 65.07C219.727 65.07 219.087 64.9113 218.518 64.594C217.958 64.2673 217.515 63.824 217.188 63.264C216.861 62.6947 216.698 62.046 216.698 61.318C216.698 60.5807 216.861 59.932 217.188 59.372C217.515 58.812 217.958 58.3733 218.518 58.056C219.078 57.7387 219.717 57.58 220.436 57.58C221.164 57.58 221.808 57.7387 222.368 58.056C222.937 58.3733 223.381 58.812 223.698 59.372C224.025 59.932 224.188 60.5807 224.188 61.318C224.188 62.046 224.025 62.6947 223.698 63.264C223.381 63.824 222.937 64.2673 222.368 64.594C221.799 64.9113 221.155 65.07 220.436 65.07ZM220.436 64.188C220.968 64.188 221.439 64.0713 221.85 63.838C222.261 63.5953 222.583 63.2593 222.816 62.83C223.059 62.3913 223.18 61.8873 223.18 61.318C223.18 60.7393 223.059 60.2353 222.816 59.806C222.583 59.3767 222.261 59.0453 221.85 58.812C221.439 58.5693 220.973 58.448 220.45 58.448C219.927 58.448 219.461 58.5693 219.05 58.812C218.639 59.0453 218.313 59.3767 218.07 59.806C217.827 60.2353 217.706 60.7393 217.706 61.318C217.706 61.8873 217.827 62.3913 218.07 62.83C218.313 63.2593 218.639 63.5953 219.05 63.838C219.461 64.0713 219.923 64.188 220.436 64.188ZM229.616 65.084C229.019 65.084 228.487 64.986 228.02 64.79C227.563 64.594 227.171 64.2953 226.844 63.894C226.518 63.4927 226.27 62.998 226.102 62.41C225.934 61.8127 225.85 61.122 225.85 60.338C225.85 59.638 225.916 59.0267 226.046 58.504C226.177 57.972 226.359 57.5147 226.592 57.132C226.826 56.7493 227.096 56.4273 227.404 56.166C227.722 55.8953 228.062 55.6807 228.426 55.522C228.8 55.354 229.182 55.228 229.574 55.144L232.878 54.374L233.046 55.298L229.938 55.998C229.742 56.0447 229.504 56.11 229.224 56.194C228.954 56.278 228.674 56.404 228.384 56.572C228.104 56.74 227.843 56.9733 227.6 57.272C227.358 57.5707 227.162 57.958 227.012 58.434C226.872 58.9007 226.802 59.484 226.802 60.184C226.802 60.3333 226.807 60.4547 226.816 60.548C226.826 60.632 226.835 60.7253 226.844 60.828C226.863 60.9213 226.877 61.0613 226.886 61.248L226.452 60.884C226.555 60.3147 226.765 59.82 227.082 59.4C227.4 58.9707 227.796 58.6393 228.272 58.406C228.758 58.1633 229.294 58.042 229.882 58.042C230.564 58.042 231.17 58.1913 231.702 58.49C232.234 58.7793 232.65 59.1853 232.948 59.708C233.256 60.2307 233.41 60.8373 233.41 61.528C233.41 62.2093 233.252 62.8207 232.934 63.362C232.626 63.9033 232.188 64.328 231.618 64.636C231.049 64.9347 230.382 65.084 229.616 65.084ZM229.728 64.258C230.251 64.258 230.713 64.1413 231.114 63.908C231.516 63.6653 231.828 63.3387 232.052 62.928C232.286 62.5173 232.402 62.0553 232.402 61.542C232.402 61.038 232.286 60.59 232.052 60.198C231.828 59.806 231.516 59.498 231.114 59.274C230.713 59.0407 230.246 58.924 229.714 58.924C229.192 58.924 228.73 59.036 228.328 59.26C227.927 59.4747 227.61 59.778 227.376 60.17C227.152 60.562 227.04 61.0147 227.04 61.528C227.04 62.0413 227.152 62.5033 227.376 62.914C227.61 63.3247 227.927 63.6513 228.328 63.894C228.739 64.1367 229.206 64.258 229.728 64.258ZM239.335 65.07C238.7 65.07 238.126 64.9253 237.613 64.636C237.1 64.3373 236.689 63.9127 236.381 63.362C236.082 62.802 235.933 62.1207 235.933 61.318C235.933 60.5153 236.082 59.8387 236.381 59.288C236.68 58.728 237.086 58.3033 237.599 58.014C238.112 57.7247 238.691 57.58 239.335 57.58C240.035 57.58 240.66 57.7387 241.211 58.056C241.771 58.364 242.21 58.8027 242.527 59.372C242.844 59.932 243.003 60.5807 243.003 61.318C243.003 62.0647 242.844 62.718 242.527 63.278C242.21 63.838 241.771 64.2767 241.211 64.594C240.66 64.9113 240.035 65.07 239.335 65.07ZM235.541 67.716V57.65H236.493V59.862L236.395 61.332L236.535 62.816V67.716H235.541ZM239.265 64.188C239.788 64.188 240.254 64.0713 240.665 63.838C241.076 63.5953 241.402 63.2593 241.645 62.83C241.888 62.3913 242.009 61.8873 242.009 61.318C242.009 60.7487 241.888 60.2493 241.645 59.82C241.402 59.3907 241.076 59.0547 240.665 58.812C240.254 58.5693 239.788 58.448 239.265 58.448C238.742 58.448 238.271 58.5693 237.851 58.812C237.44 59.0547 237.114 59.3907 236.871 59.82C236.638 60.2493 236.521 60.7487 236.521 61.318C236.521 61.8873 236.638 62.3913 236.871 62.83C237.114 63.2593 237.44 63.5953 237.851 63.838C238.271 64.0713 238.742 64.188 239.265 64.188ZM248.289 65.07C247.523 65.07 246.851 64.9113 246.273 64.594C245.694 64.2673 245.241 63.824 244.915 63.264C244.588 62.6947 244.425 62.046 244.425 61.318C244.425 60.59 244.579 59.946 244.887 59.386C245.204 58.826 245.633 58.3873 246.175 58.07C246.725 57.7433 247.341 57.58 248.023 57.58C248.713 57.58 249.325 57.7387 249.857 58.056C250.398 58.364 250.823 58.8027 251.131 59.372C251.439 59.932 251.593 60.5807 251.593 61.318C251.593 61.3647 251.588 61.416 251.579 61.472C251.579 61.5187 251.579 61.57 251.579 61.626H245.181V60.884H251.047L250.655 61.178C250.655 60.646 250.538 60.1747 250.305 59.764C250.081 59.344 249.773 59.0173 249.381 58.784C248.989 58.5507 248.536 58.434 248.023 58.434C247.519 58.434 247.066 58.5507 246.665 58.784C246.263 59.0173 245.951 59.344 245.727 59.764C245.503 60.184 245.391 60.6647 245.391 61.206V61.36C245.391 61.92 245.512 62.4147 245.755 62.844C246.007 63.264 246.352 63.5953 246.791 63.838C247.239 64.0713 247.747 64.188 248.317 64.188C248.765 64.188 249.18 64.1087 249.563 63.95C249.955 63.7913 250.291 63.5487 250.571 63.222L251.131 63.866C250.804 64.258 250.393 64.5567 249.899 64.762C249.413 64.9673 248.877 65.07 248.289 65.07ZM48.414 85V77.65H51.662C52.4927 77.65 53.146 77.8087 53.622 78.126C54.1073 78.4433 54.35 78.91 54.35 79.526C54.35 80.1233 54.1213 80.5853 53.664 80.912C53.2067 81.2293 52.6047 81.388 51.858 81.388L52.054 81.094C52.9313 81.094 53.5753 81.2573 53.986 81.584C54.3967 81.9107 54.602 82.382 54.602 82.998C54.602 83.6327 54.3687 84.1273 53.902 84.482C53.4447 84.8273 52.7307 85 51.76 85H48.414ZM49.38 84.216H51.718C52.3433 84.216 52.8147 84.118 53.132 83.922C53.4587 83.7167 53.622 83.39 53.622 82.942C53.622 82.494 53.4773 82.1673 53.188 81.962C52.8987 81.7567 52.4413 81.654 51.816 81.654H49.38V84.216ZM49.38 80.912H51.592C52.1613 80.912 52.5953 80.8047 52.894 80.59C53.202 80.3753 53.356 80.0627 53.356 79.652C53.356 79.2413 53.202 78.9333 52.894 78.728C52.5953 78.5227 52.1613 78.42 51.592 78.42H49.38V80.912ZM56.9316 85V77.65H57.9256V83.488L62.8396 77.65H63.7216V85H62.7276V79.148L57.8276 85H56.9316ZM72.2083 85.084C71.6763 85.084 71.149 85.0093 70.6263 84.86C70.1036 84.7107 69.6416 84.482 69.2403 84.174L69.5623 83.432C69.917 83.6933 70.3276 83.894 70.7943 84.034C71.261 84.1647 71.723 84.23 72.1803 84.23C72.6376 84.2207 73.0343 84.1553 73.3703 84.034C73.7063 83.9127 73.9676 83.7447 74.1543 83.53C74.341 83.3153 74.4343 83.0727 74.4343 82.802C74.4343 82.41 74.257 82.1067 73.9023 81.892C73.5476 81.668 73.0623 81.556 72.4463 81.556H71.1863V80.828H72.3763C72.7403 80.828 73.0623 80.7813 73.3423 80.688C73.6223 80.5947 73.837 80.4593 73.9863 80.282C74.145 80.1047 74.2243 79.8947 74.2243 79.652C74.2243 79.3907 74.131 79.1667 73.9443 78.98C73.767 78.7933 73.5196 78.6533 73.2023 78.56C72.885 78.4667 72.5256 78.42 72.1243 78.42C71.7603 78.4293 71.3823 78.4853 70.9903 78.588C70.5983 78.6813 70.211 78.826 69.8283 79.022L69.5483 78.252C69.9776 78.028 70.4023 77.86 70.8223 77.748C71.2516 77.6267 71.681 77.566 72.1103 77.566C72.6983 77.5473 73.2256 77.6173 73.6923 77.776C74.1683 77.9347 74.5463 78.1633 74.8263 78.462C75.1063 78.7513 75.2463 79.1013 75.2463 79.512C75.2463 79.876 75.1343 80.1933 74.9103 80.464C74.6863 80.7347 74.3876 80.9447 74.0143 81.094C73.641 81.2433 73.2163 81.318 72.7403 81.318L72.7823 81.052C73.6223 81.052 74.2756 81.2153 74.7423 81.542C75.2183 81.8687 75.4563 82.312 75.4563 82.872C75.4563 83.3107 75.3116 83.698 75.0223 84.034C74.733 84.3607 74.341 84.6173 73.8463 84.804C73.361 84.9907 72.815 85.084 72.2083 85.084ZM77.7128 85V77.65H78.7068V80.898H83.3408V77.65H84.3348V85H83.3408V81.752H78.7068V85H77.7128ZM91.7241 85V83.376L91.6821 83.11V80.394C91.6821 79.7687 91.5048 79.288 91.1501 78.952C90.8048 78.616 90.2868 78.448 89.5961 78.448C89.1201 78.448 88.6674 78.5273 88.2381 78.686C87.8088 78.8447 87.4448 79.0547 87.1461 79.316L86.6981 78.574C87.0714 78.2567 87.5194 78.014 88.0421 77.846C88.5648 77.6687 89.1154 77.58 89.6941 77.58C90.6461 77.58 91.3788 77.818 91.8921 78.294C92.4148 78.7607 92.6761 79.4747 92.6761 80.436V85H91.7241ZM89.1901 85.07C88.6394 85.07 88.1588 84.9813 87.7481 84.804C87.3468 84.6173 87.0388 84.3653 86.8241 84.048C86.6094 83.7213 86.5021 83.348 86.5021 82.928C86.5021 82.5453 86.5908 82.2 86.7681 81.892C86.9548 81.5747 87.2534 81.3227 87.6641 81.136C88.0841 80.94 88.6441 80.842 89.3441 80.842H91.8781V81.584H89.3721C88.6628 81.584 88.1681 81.71 87.8881 81.962C87.6174 82.214 87.4821 82.5267 87.4821 82.9C87.4821 83.32 87.6454 83.656 87.9721 83.908C88.2988 84.16 88.7561 84.286 89.3441 84.286C89.9041 84.286 90.3848 84.16 90.7861 83.908C91.1968 83.6467 91.4954 83.2733 91.6821 82.788L91.9061 83.474C91.7194 83.9593 91.3928 84.3467 90.9261 84.636C90.4688 84.9253 89.8901 85.07 89.1901 85.07ZM99.4802 81.01V81.752H95.2102V81.01H99.4802ZM98.5002 85.07C97.7535 85.07 97.0862 84.9113 96.4982 84.594C95.9102 84.2673 95.4435 83.8193 95.0982 83.25C94.7622 82.6807 94.5942 82.0367 94.5942 81.318C94.5942 80.59 94.7622 79.946 95.0982 79.386C95.4435 78.8167 95.9102 78.3733 96.4982 78.056C97.0862 77.7293 97.7535 77.566 98.5002 77.566C99.1069 77.566 99.6669 77.6593 100.18 77.846C100.694 78.0327 101.128 78.3127 101.482 78.686L100.908 79.26C100.582 78.9613 100.218 78.742 99.8162 78.602C99.4242 78.462 98.9949 78.392 98.5282 78.392C97.9589 78.392 97.4455 78.518 96.9882 78.77C96.5402 79.022 96.1809 79.372 95.9102 79.82C95.6489 80.2587 95.5182 80.758 95.5182 81.318C95.5182 81.8873 95.6489 82.3913 95.9102 82.83C96.1809 83.2687 96.5402 83.6187 96.9882 83.88C97.4455 84.132 97.9589 84.258 98.5282 84.258C98.9949 84.258 99.4242 84.188 99.8162 84.048C100.218 83.8987 100.582 83.67 100.908 83.362L101.482 83.936C101.128 84.3093 100.694 84.594 100.18 84.79C99.6669 84.9767 99.1069 85.07 98.5002 85.07ZM104.597 85V78.252L104.849 78.518H101.811V77.65H108.377V78.518H105.339L105.591 78.252V85H104.597ZM112.623 85.07C111.857 85.07 111.185 84.9113 110.607 84.594C110.028 84.2673 109.575 83.824 109.249 83.264C108.922 82.6947 108.759 82.046 108.759 81.318C108.759 80.59 108.913 79.946 109.221 79.386C109.538 78.826 109.967 78.3873 110.509 78.07C111.059 77.7433 111.675 77.58 112.357 77.58C113.047 77.58 113.659 77.7387 114.191 78.056C114.732 78.364 115.157 78.8027 115.465 79.372C115.773 79.932 115.927 80.5807 115.927 81.318C115.927 81.3647 115.922 81.416 115.913 81.472C115.913 81.5187 115.913 81.57 115.913 81.626H109.515V80.884H115.381L114.989 81.178C114.989 80.646 114.872 80.1747 114.639 79.764C114.415 79.344 114.107 79.0173 113.715 78.784C113.323 78.5507 112.87 78.434 112.357 78.434C111.853 78.434 111.4 78.5507 110.999 78.784C110.597 79.0173 110.285 79.344 110.061 79.764C109.837 80.184 109.725 80.6647 109.725 81.206V81.36C109.725 81.92 109.846 82.4147 110.089 82.844C110.341 83.264 110.686 83.5953 111.125 83.838C111.573 84.0713 112.081 84.188 112.651 84.188C113.099 84.188 113.514 84.1087 113.897 83.95C114.289 83.7913 114.625 83.5487 114.905 83.222L115.465 83.866C115.138 84.258 114.727 84.5567 114.233 84.762C113.747 84.9673 113.211 85.07 112.623 85.07ZM124.871 85.07C124.143 85.07 123.49 84.9113 122.911 84.594C122.342 84.2673 121.894 83.824 121.567 83.264C121.24 82.6947 121.077 82.046 121.077 81.318C121.077 80.5807 121.24 79.932 121.567 79.372C121.894 78.812 122.342 78.3733 122.911 78.056C123.49 77.7387 124.143 77.58 124.871 77.58C125.496 77.58 126.061 77.7013 126.565 77.944C127.069 78.1867 127.466 78.5507 127.755 79.036L127.013 79.54C126.761 79.1667 126.448 78.8913 126.075 78.714C125.702 78.5367 125.296 78.448 124.857 78.448C124.334 78.448 123.863 78.5693 123.443 78.812C123.023 79.0453 122.692 79.3767 122.449 79.806C122.206 80.2353 122.085 80.7393 122.085 81.318C122.085 81.8967 122.206 82.4007 122.449 82.83C122.692 83.2593 123.023 83.5953 123.443 83.838C123.863 84.0713 124.334 84.188 124.857 84.188C125.296 84.188 125.702 84.0993 126.075 83.922C126.448 83.7447 126.761 83.474 127.013 83.11L127.755 83.614C127.466 84.09 127.069 84.454 126.565 84.706C126.061 84.9487 125.496 85.07 124.871 85.07ZM129.68 85V77.65H132.928C133.758 77.65 134.412 77.8087 134.888 78.126C135.373 78.4433 135.616 78.91 135.616 79.526C135.616 80.1233 135.387 80.5853 134.93 80.912C134.472 81.2293 133.87 81.388 133.124 81.388L133.32 81.094C134.197 81.094 134.841 81.2573 135.252 81.584C135.662 81.9107 135.868 82.382 135.868 82.998C135.868 83.6327 135.634 84.1273 135.168 84.482C134.71 84.8273 133.996 85 133.026 85H129.68ZM130.646 84.216H132.984C133.609 84.216 134.08 84.118 134.398 83.922C134.724 83.7167 134.888 83.39 134.888 82.942C134.888 82.494 134.743 82.1673 134.454 81.962C134.164 81.7567 133.707 81.654 133.082 81.654H130.646V84.216ZM130.646 80.912H132.858C133.427 80.912 133.861 80.8047 134.16 80.59C134.468 80.3753 134.622 80.0627 134.622 79.652C134.622 79.2413 134.468 78.9333 134.16 78.728C133.861 78.5227 133.427 78.42 132.858 78.42H130.646V80.912ZM141.221 85.07C140.512 85.07 139.873 84.9113 139.303 84.594C138.743 84.2673 138.3 83.824 137.973 83.264C137.647 82.6947 137.483 82.046 137.483 81.318C137.483 80.5807 137.647 79.932 137.973 79.372C138.3 78.812 138.743 78.3733 139.303 78.056C139.863 77.7387 140.503 77.58 141.221 77.58C141.949 77.58 142.593 77.7387 143.153 78.056C143.723 78.3733 144.166 78.812 144.483 79.372C144.81 79.932 144.973 80.5807 144.973 81.318C144.973 82.046 144.81 82.6947 144.483 83.264C144.166 83.824 143.723 84.2673 143.153 84.594C142.584 84.9113 141.94 85.07 141.221 85.07ZM141.221 84.188C141.753 84.188 142.225 84.0713 142.635 83.838C143.046 83.5953 143.368 83.2593 143.601 82.83C143.844 82.3913 143.965 81.8873 143.965 81.318C143.965 80.7393 143.844 80.2353 143.601 79.806C143.368 79.3767 143.046 79.0453 142.635 78.812C142.225 78.5693 141.758 78.448 141.235 78.448C140.713 78.448 140.246 78.5693 139.835 78.812C139.425 79.0453 139.098 79.3767 138.855 79.806C138.613 80.2353 138.491 80.7393 138.491 81.318C138.491 81.8873 138.613 82.3913 138.855 82.83C139.098 83.2593 139.425 83.5953 139.835 83.838C140.246 84.0713 140.708 84.188 141.221 84.188ZM147.07 85V77.65H148.064V85H147.07ZM148.498 76.18C148.339 76.18 148.204 76.124 148.092 76.012C147.98 75.8907 147.924 75.746 147.924 75.578C147.924 75.4193 147.98 75.284 148.092 75.172C148.204 75.0507 148.339 74.99 148.498 74.99C148.666 74.99 148.806 75.046 148.918 75.158C149.03 75.27 149.086 75.41 149.086 75.578C149.086 75.746 149.03 75.8907 148.918 76.012C148.806 76.124 148.666 76.18 148.498 76.18ZM146.65 76.18C146.482 76.18 146.342 76.124 146.23 76.012C146.118 75.8907 146.062 75.746 146.062 75.578C146.062 75.4193 146.118 75.284 146.23 75.172C146.342 75.0507 146.482 74.99 146.65 74.99C146.818 74.99 146.953 75.046 147.056 75.158C147.168 75.27 147.224 75.41 147.224 75.578C147.224 75.746 147.168 75.8907 147.056 76.012C146.953 76.124 146.818 76.18 146.65 76.18ZM154.521 85V77.65H161.129V85H160.135V78.252L160.387 78.518H155.263L155.515 78.252V85H154.521ZM167.749 85.07C167.114 85.07 166.54 84.9253 166.027 84.636C165.514 84.3373 165.103 83.9127 164.795 83.362C164.496 82.802 164.347 82.1207 164.347 81.318C164.347 80.5153 164.496 79.8387 164.795 79.288C165.094 78.728 165.5 78.3033 166.013 78.014C166.526 77.7247 167.105 77.58 167.749 77.58C168.449 77.58 169.074 77.7387 169.625 78.056C170.185 78.364 170.624 78.8027 170.941 79.372C171.258 79.932 171.417 80.5807 171.417 81.318C171.417 82.0647 171.258 82.718 170.941 83.278C170.624 83.838 170.185 84.2767 169.625 84.594C169.074 84.9113 168.449 85.07 167.749 85.07ZM163.955 87.716V77.65H164.907V79.862L164.809 81.332L164.949 82.816V87.716H163.955ZM167.679 84.188C168.202 84.188 168.668 84.0713 169.079 83.838C169.49 83.5953 169.816 83.2593 170.059 82.83C170.302 82.3913 170.423 81.8873 170.423 81.318C170.423 80.7487 170.302 80.2493 170.059 79.82C169.816 79.3907 169.49 79.0547 169.079 78.812C168.668 78.5693 168.202 78.448 167.679 78.448C167.156 78.448 166.685 78.5693 166.265 78.812C165.854 79.0547 165.528 79.3907 165.285 79.82C165.052 80.2493 164.935 80.7487 164.935 81.318C164.935 81.8873 165.052 82.3913 165.285 82.83C165.528 83.2593 165.854 83.5953 166.265 83.838C166.685 84.0713 167.156 84.188 167.679 84.188ZM178.076 85V83.376L178.034 83.11V80.394C178.034 79.7687 177.856 79.288 177.502 78.952C177.156 78.616 176.638 78.448 175.948 78.448C175.472 78.448 175.019 78.5273 174.59 78.686C174.16 78.8447 173.796 79.0547 173.498 79.316L173.05 78.574C173.423 78.2567 173.871 78.014 174.394 77.846C174.916 77.6687 175.467 77.58 176.046 77.58C176.998 77.58 177.73 77.818 178.244 78.294C178.766 78.7607 179.028 79.4747 179.028 80.436V85H178.076ZM175.542 85.07C174.991 85.07 174.51 84.9813 174.1 84.804C173.698 84.6173 173.39 84.3653 173.176 84.048C172.961 83.7213 172.854 83.348 172.854 82.928C172.854 82.5453 172.942 82.2 173.12 81.892C173.306 81.5747 173.605 81.3227 174.016 81.136C174.436 80.94 174.996 80.842 175.696 80.842H178.23V81.584H175.724C175.014 81.584 174.52 81.71 174.24 81.962C173.969 82.214 173.834 82.5267 173.834 82.9C173.834 83.32 173.997 83.656 174.324 83.908C174.65 84.16 175.108 84.286 175.696 84.286C176.256 84.286 176.736 84.16 177.138 83.908C177.548 83.6467 177.847 83.2733 178.034 82.788L178.258 83.474C178.071 83.9593 177.744 84.3467 177.278 84.636C176.82 84.9253 176.242 85.07 175.542 85.07ZM181.674 85V77.65H184.922C185.752 77.65 186.406 77.8087 186.882 78.126C187.367 78.4433 187.61 78.91 187.61 79.526C187.61 80.1233 187.381 80.5853 186.924 80.912C186.466 81.2293 185.864 81.388 185.118 81.388L185.314 81.094C186.191 81.094 186.835 81.2573 187.246 81.584C187.656 81.9107 187.862 82.382 187.862 82.998C187.862 83.6327 187.628 84.1273 187.162 84.482C186.704 84.8273 185.99 85 185.02 85H181.674ZM182.64 84.216H184.978C185.603 84.216 186.074 84.118 186.392 83.922C186.718 83.7167 186.882 83.39 186.882 82.942C186.882 82.494 186.737 82.1673 186.448 81.962C186.158 81.7567 185.701 81.654 185.076 81.654H182.64V84.216ZM182.64 80.912H184.852C185.421 80.912 185.855 80.8047 186.154 80.59C186.462 80.3753 186.616 80.0627 186.616 79.652C186.616 79.2413 186.462 78.9333 186.154 78.728C185.855 78.5227 185.421 78.42 184.852 78.42H182.64V80.912ZM194.755 85V83.376L194.713 83.11V80.394C194.713 79.7687 194.536 79.288 194.181 78.952C193.836 78.616 193.318 78.448 192.627 78.448C192.151 78.448 191.699 78.5273 191.269 78.686C190.84 78.8447 190.476 79.0547 190.177 79.316L189.729 78.574C190.103 78.2567 190.551 78.014 191.073 77.846C191.596 77.6687 192.147 77.58 192.725 77.58C193.677 77.58 194.41 77.818 194.923 78.294C195.446 78.7607 195.707 79.4747 195.707 80.436V85H194.755ZM192.221 85.07C191.671 85.07 191.19 84.9813 190.779 84.804C190.378 84.6173 190.07 84.3653 189.855 84.048C189.641 83.7213 189.533 83.348 189.533 82.928C189.533 82.5453 189.622 82.2 189.799 81.892C189.986 81.5747 190.285 81.3227 190.695 81.136C191.115 80.94 191.675 80.842 192.375 80.842H194.909V81.584H192.403C191.694 81.584 191.199 81.71 190.919 81.962C190.649 82.214 190.513 82.5267 190.513 82.9C190.513 83.32 190.677 83.656 191.003 83.908C191.33 84.16 191.787 84.286 192.375 84.286C192.935 84.286 193.416 84.16 193.817 83.908C194.228 83.6467 194.527 83.2733 194.713 82.788L194.937 83.474C194.751 83.9593 194.424 84.3467 193.957 84.636C193.5 84.9253 192.921 85.07 192.221 85.07ZM200.366 82.06C200.366 81.668 200.427 81.332 200.548 81.052C200.679 80.772 200.838 80.5247 201.024 80.31C201.22 80.0953 201.426 79.8947 201.64 79.708C201.864 79.5213 202.074 79.3347 202.27 79.148C202.466 78.952 202.625 78.742 202.746 78.518C202.868 78.2847 202.928 78.014 202.928 77.706C202.928 77.202 202.732 76.7913 202.34 76.474C201.948 76.1567 201.393 75.998 200.674 75.998C200.077 75.998 199.559 76.096 199.12 76.292C198.682 76.4787 198.308 76.7587 198 77.132L197.258 76.572C197.632 76.1053 198.112 75.746 198.7 75.494C199.288 75.242 199.97 75.116 200.744 75.116C201.398 75.116 201.962 75.214 202.438 75.41C202.924 75.606 203.297 75.886 203.558 76.25C203.829 76.614 203.964 77.048 203.964 77.552C203.964 77.9533 203.899 78.2987 203.768 78.588C203.647 78.868 203.488 79.12 203.292 79.344C203.106 79.5587 202.9 79.764 202.676 79.96C202.462 80.1467 202.256 80.338 202.06 80.534C201.864 80.73 201.706 80.9493 201.584 81.192C201.463 81.4347 201.402 81.724 201.402 82.06H200.366ZM200.884 85.07C200.688 85.07 200.516 85 200.366 84.86C200.226 84.7107 200.156 84.538 200.156 84.342C200.156 84.1367 200.226 83.9687 200.366 83.838C200.516 83.698 200.688 83.628 200.884 83.628C201.099 83.628 201.276 83.698 201.416 83.838C201.556 83.9687 201.626 84.1367 201.626 84.342C201.626 84.538 201.556 84.7107 201.416 84.86C201.276 85 201.099 85.07 200.884 85.07Z" fill="white"/>
<path d="M47.406 37.034L47.994 35.704C48.414 35.9933 48.8713 36.2173 49.366 36.376C49.87 36.5253 50.3693 36.6047 50.864 36.614C51.3587 36.6233 51.8067 36.5673 52.208 36.446C52.6187 36.3247 52.9453 36.1427 53.188 35.9C53.4307 35.6573 53.552 35.354 53.552 34.99C53.552 34.5513 53.37 34.2247 53.006 34.01C52.6513 33.786 52.166 33.674 51.55 33.674H49.268V32.246H51.41C51.9607 32.246 52.3853 32.134 52.684 31.91C52.992 31.686 53.146 31.3827 53.146 31C53.146 30.6827 53.0433 30.4213 52.838 30.216C52.642 30.0107 52.3713 29.8567 52.026 29.754C51.69 29.6513 51.3073 29.6047 50.878 29.614C50.458 29.614 50.0193 29.6793 49.562 29.81C49.1047 29.9313 48.6707 30.1133 48.26 30.356L47.686 28.886C48.302 28.5593 48.946 28.3307 49.618 28.2C50.2993 28.0693 50.9573 28.032 51.592 28.088C52.2267 28.144 52.796 28.2887 53.3 28.522C53.8133 28.7553 54.224 29.0633 54.532 29.446C54.84 29.8193 54.994 30.2627 54.994 30.776C54.994 31.2427 54.868 31.658 54.616 32.022C54.3733 32.3767 54.0373 32.652 53.608 32.848C53.1787 33.044 52.6793 33.142 52.11 33.142L52.18 32.694C52.824 32.694 53.384 32.806 53.86 33.03C54.3453 33.2447 54.7187 33.5433 54.98 33.926C55.2507 34.3087 55.386 34.752 55.386 35.256C55.386 35.732 55.2647 36.1567 55.022 36.53C54.7793 36.894 54.448 37.202 54.028 37.454C53.608 37.6967 53.1273 37.8787 52.586 38C52.0447 38.112 51.4753 38.154 50.878 38.126C50.2807 38.098 49.6833 37.9953 49.086 37.818C48.498 37.6407 47.938 37.3793 47.406 37.034ZM66.4518 28.2H68.2718V38H66.4518V28.2ZM61.3838 38H59.5638V28.2H61.3838V38ZM66.5918 33.8H61.2298V32.246H66.5918V33.8ZM71.8748 38L76.2848 28.2H78.0768L82.5008 38H80.5968L76.8028 29.166H77.5308L73.7508 38H71.8748ZM73.9048 35.732L74.3948 34.304H79.6868L80.1768 35.732H73.9048ZM92.9916 28.2H94.8116V38H92.9916V28.2ZM87.9236 38H86.1036V28.2H87.9236V38ZM93.1316 33.8H87.7696V32.246H93.1316V33.8ZM106.549 28.2H108.369V38H106.549V28.2ZM101.481 38H99.6607V28.2H101.481V38ZM106.689 33.8H101.327V32.246H106.689V33.8ZM118.916 38V34.864L119.364 35.27H116.494C115.672 35.27 114.963 35.1347 114.366 34.864C113.778 34.584 113.325 34.1873 113.008 33.674C112.69 33.1513 112.532 32.526 112.532 31.798C112.532 31.042 112.7 30.398 113.036 29.866C113.372 29.3247 113.848 28.914 114.464 28.634C115.08 28.3447 115.803 28.2 116.634 28.2H120.708V38H118.916ZM112.56 38L114.982 34.5H116.816L114.478 38H112.56ZM118.916 34.276V29.236L119.364 29.74H116.69C115.943 29.74 115.369 29.9127 114.968 30.258C114.576 30.594 114.38 31.098 114.38 31.77C114.38 32.414 114.566 32.9133 114.94 33.268C115.322 33.6133 115.882 33.786 116.62 33.786H119.364L118.916 34.276ZM130.575 37.034L131.163 35.704C131.583 35.9933 132.04 36.2173 132.535 36.376C133.039 36.5253 133.538 36.6047 134.033 36.614C134.527 36.6233 134.975 36.5673 135.377 36.446C135.787 36.3247 136.114 36.1427 136.357 35.9C136.599 35.6573 136.721 35.354 136.721 34.99C136.721 34.5513 136.539 34.2247 136.175 34.01C135.82 33.786 135.335 33.674 134.719 33.674H132.437V32.246H134.579C135.129 32.246 135.554 32.134 135.853 31.91C136.161 31.686 136.315 31.3827 136.315 31C136.315 30.6827 136.212 30.4213 136.007 30.216C135.811 30.0107 135.54 29.8567 135.195 29.754C134.859 29.6513 134.476 29.6047 134.047 29.614C133.627 29.614 133.188 29.6793 132.731 29.81C132.273 29.9313 131.839 30.1133 131.429 30.356L130.855 28.886C131.471 28.5593 132.115 28.3307 132.787 28.2C133.468 28.0693 134.126 28.032 134.761 28.088C135.395 28.144 135.965 28.2887 136.469 28.522C136.982 28.7553 137.393 29.0633 137.701 29.446C138.009 29.8193 138.163 30.2627 138.163 30.776C138.163 31.2427 138.037 31.658 137.785 32.022C137.542 32.3767 137.206 32.652 136.777 32.848C136.347 33.044 135.848 33.142 135.279 33.142L135.349 32.694C135.993 32.694 136.553 32.806 137.029 33.03C137.514 33.2447 137.887 33.5433 138.149 33.926C138.419 34.3087 138.555 34.752 138.555 35.256C138.555 35.732 138.433 36.1567 138.191 36.53C137.948 36.894 137.617 37.202 137.197 37.454C136.777 37.6967 136.296 37.8787 135.755 38C135.213 38.112 134.644 38.154 134.047 38.126C133.449 38.098 132.852 37.9953 132.255 37.818C131.667 37.6407 131.107 37.3793 130.575 37.034ZM141.487 38L145.897 28.2H147.689L152.113 38H150.209L146.415 29.166H147.143L143.363 38H141.487ZM143.517 35.732L144.007 34.304H149.299L149.789 35.732H143.517ZM162.197 38L158.879 33.226L160.349 32.316L164.255 38H162.197ZM155.715 38V28.2H157.507V38H155.715ZM156.961 33.87V32.302H160.265V33.87H156.961ZM160.517 33.31L158.851 33.086L162.197 28.2H164.129L160.517 33.31ZM172.113 38.14C171.348 38.14 170.643 38.014 169.999 37.762C169.355 37.51 168.795 37.16 168.319 36.712C167.843 36.2547 167.475 35.7227 167.213 35.116C166.952 34.5 166.821 33.828 166.821 33.1C166.821 32.372 166.952 31.7047 167.213 31.098C167.475 30.482 167.843 29.95 168.319 29.502C168.795 29.0447 169.355 28.69 169.999 28.438C170.643 28.186 171.343 28.06 172.099 28.06C172.865 28.06 173.565 28.186 174.199 28.438C174.843 28.69 175.403 29.0447 175.879 29.502C176.355 29.95 176.724 30.482 176.985 31.098C177.247 31.7047 177.377 32.372 177.377 33.1C177.377 33.828 177.247 34.5 176.985 35.116C176.724 35.732 176.355 36.264 175.879 36.712C175.403 37.16 174.843 37.51 174.199 37.762C173.565 38.014 172.869 38.14 172.113 38.14ZM172.099 36.544C172.594 36.544 173.051 36.46 173.471 36.292C173.891 36.124 174.255 35.886 174.563 35.578C174.871 35.2607 175.109 34.8967 175.277 34.486C175.455 34.066 175.543 33.604 175.543 33.1C175.543 32.596 175.455 32.1387 175.277 31.728C175.109 31.308 174.871 30.944 174.563 30.636C174.255 30.3187 173.891 30.076 173.471 29.908C173.051 29.74 172.594 29.656 172.099 29.656C171.605 29.656 171.147 29.74 170.727 29.908C170.317 30.076 169.953 30.3187 169.635 30.636C169.327 30.944 169.085 31.308 168.907 31.728C168.739 32.1387 168.655 32.596 168.655 33.1C168.655 33.5947 168.739 34.052 168.907 34.472C169.085 34.892 169.327 35.2607 169.635 35.578C169.943 35.886 170.307 36.124 170.727 36.292C171.147 36.46 171.605 36.544 172.099 36.544ZM188.378 28.2H190.198V38H188.378V28.2ZM183.31 38H181.49V28.2H183.31V38ZM188.518 33.8H183.156V32.246H188.518V33.8ZM195.061 38V28.2H196.853V38H195.061ZM201.727 38V28.2H206.109C207.21 28.2 208.069 28.4193 208.685 28.858C209.301 29.2873 209.609 29.908 209.609 30.72C209.609 31.5227 209.315 32.1433 208.727 32.582C208.139 33.0113 207.364 33.226 206.403 33.226L206.655 32.722C207.747 32.722 208.592 32.9413 209.189 33.38C209.786 33.8187 210.085 34.4533 210.085 35.284C210.085 36.1333 209.772 36.8007 209.147 37.286C208.522 37.762 207.598 38 206.375 38H201.727ZM203.519 36.6H206.319C206.954 36.6 207.434 36.4833 207.761 36.25C208.088 36.0073 208.251 35.6387 208.251 35.144C208.251 34.6493 208.088 34.29 207.761 34.066C207.434 33.8327 206.954 33.716 206.319 33.716H203.519V36.6ZM203.519 32.386H205.955C206.543 32.386 206.991 32.2693 207.299 32.036C207.607 31.7933 207.761 31.448 207.761 31C207.761 30.5333 207.607 30.1833 207.299 29.95C206.991 29.7167 206.543 29.6 205.955 29.6H203.519V32.386Z" fill="white"/>
<path d="M308 24.6777C308 25.23 308.448 25.6777 309 25.6777L318 25.6777C318.552 25.6777 319 25.23 319 24.6777C319 24.1254 318.552 23.6777 318 23.6777L310 23.6777L310 15.6777C310 15.1254 309.552 14.6777 309 14.6777C308.448 14.6777 308 15.1254 308 15.6777L308 24.6777ZM325.971 6.29289L308.293 23.9706L309.707 25.3848L327.385 7.70711L325.971 6.29289Z" fill="#5885FA"/>
</svg>
